# Blender v2.76 (sub 0) OBJ File: 'fighter.blend'
# www.blender.org
v -3.923116 -0.000000 -0.777919
v 3.180366 0.000000 -0.496183
v -3.923116 -0.608202 -0.485024
v 3.180366 -0.387931 -0.309365
v -3.923116 -0.758415 0.173103
v 3.180366 -0.483742 0.110411
v -3.923116 -0.337526 0.700881
v 3.180366 -0.215286 0.447045
v -3.923116 0.337526 0.700881
v 3.180366 0.215286 0.447045
v -3.923116 0.758415 0.173103
v 3.180366 0.483742 0.110411
v -3.923116 0.608202 -0.485024
v 3.180366 0.387931 -0.309365
v -1.126877 -0.000000 -2.823946
v 0.208703 -0.000000 -2.554047
v 0.208703 -1.996835 -1.592423
v -1.126878 -2.207850 -1.760702
v 0.208704 -2.490012 0.568329
v -1.126878 -2.753144 0.628387
v 0.208703 -1.108159 2.301117
v -1.126878 -1.225264 2.544288
v 0.208703 1.108159 2.301116
v -1.126878 1.225264 2.544288
v 0.208703 2.490011 0.568329
v -1.126878 2.753144 0.628387
v 0.208703 1.996834 -1.592422
v -1.126878 2.207850 -1.760702
vt 0.985049 0.517704
vt 0.985049 0.985651
vt 0.846464 0.985651
vt 0.846464 0.517704
vt 0.707878 0.985651
vt 0.707878 0.517704
vt 0.569293 0.985651
vt 0.569293 0.517704
vt 0.430707 0.985651
vt 0.430707 0.517704
vt 0.292122 0.985651
vt 0.292122 0.517704
vt 0.153536 0.517704
vt 0.153536 0.985651
vt 0.014951 0.985651
vt 0.014951 0.517704
vt 0.292122 0.022540
vt 0.292122 0.307390
vt 0.153536 0.307390
vt 0.153536 0.022540
vt 0.014951 0.307390
vt 0.014951 0.022540
vt 0.430707 0.022540
vt 0.430707 0.307390
vt 0.569293 0.022540
vt 0.569293 0.307390
vt 0.707878 0.022540
vt 0.707878 0.307390
vt 0.846464 0.022540
vt 0.846464 0.307390
vt 0.985049 0.022540
vt 0.985049 0.307390
vn 0.529300 -0.368100 -0.764400
vn 0.529300 -0.827100 -0.188800
vn 0.529300 -0.663300 0.529000
vn 0.529300 0.000000 0.848400
vn 0.529300 0.663300 0.529000
vn 0.529300 0.368100 -0.764400
vn 0.529300 0.827100 -0.188800
vn -0.550400 0.814000 -0.185800
vn 0.179100 0.959200 -0.218900
vn -0.550400 0.362200 -0.752200
vn 0.179100 0.426900 -0.886400
vn -0.550400 0.652800 0.520600
vn 0.179100 0.769200 0.613400
vn -0.550400 0.000000 0.834900
vn 0.179100 0.000000 0.983800
vn -0.550400 -0.652800 0.520600
vn 0.179100 -0.769200 0.613400
vn -0.550400 -0.814000 -0.185800
vn 0.179100 -0.959200 -0.218900
vn -0.550400 -0.362200 -0.752200
vn 0.179100 -0.426900 -0.886400
s off
f 16/1/1 2/2/1 4/3/1 17/4/1
f 17/4/2 4/3/2 6/5/2 19/6/2
f 19/6/3 6/5/3 8/7/3 21/8/3
f 21/8/4 8/7/4 10/9/4 23/10/4
f 23/10/5 10/9/5 12/11/5 25/12/5
f 27/13/6 14/14/6 2/15/6 16/16/6
f 25/12/7 12/11/7 14/14/7 27/13/7
f 11/17/8 26/18/8 28/19/8 13/20/8
f 26/18/9 25/12/9 27/13/9 28/19/9
f 13/20/10 28/19/10 15/21/10 1/22/10
f 28/19/11 27/13/11 16/16/11 15/21/11
f 9/23/12 24/24/12 26/18/12 11/17/12
f 24/24/13 23/10/13 25/12/13 26/18/13
f 7/25/14 22/26/14 24/24/14 9/23/14
f 22/26/15 21/8/15 23/10/15 24/24/15
f 5/27/16 20/28/16 22/26/16 7/25/16
f 20/28/17 19/6/17 21/8/17 22/26/17
f 3/29/18 18/30/18 20/28/18 5/27/18
f 18/30/19 17/4/19 19/6/19 20/28/19
f 1/31/20 15/32/20 18/30/20 3/29/20
f 15/32/21 16/1/21 17/4/21 18/30/21
