# Blender v2.76 (sub 0) OBJ File: 'cube.blend'
# www.blender.org
v 1.712958 0.186748 -0.494929
v -1.558520 0.285949 -0.993649
v 1.712958 0.289798 -0.463669
v -1.558520 0.484389 -0.933454
v 1.712958 0.384769 -0.412906
v -1.558520 0.667271 -0.835701
v 1.712958 0.468012 -0.344591
v -1.558520 0.827569 -0.704148
v 1.712958 0.536327 -0.261348
v -1.558520 0.959123 -0.543850
v 1.712958 0.587091 -0.166377
v -1.558520 1.056875 -0.360968
v 1.712958 0.618351 -0.063327
v -1.558520 1.117072 -0.162529
v 1.712958 0.628906 0.043841
v -1.558520 1.137397 0.043841
v 1.712958 0.618351 0.151009
v -1.558520 1.117072 0.250211
v 1.712958 0.587091 0.254058
v -1.558520 1.056876 0.448650
v 1.712958 0.536328 0.349029
v -1.558520 0.959123 0.631532
v 1.712958 0.468013 0.432272
v -1.558520 0.827570 0.791830
v 1.712958 0.384770 0.500588
v -1.558520 0.667273 0.923383
v 1.712958 0.289798 0.551351
v -1.558520 0.484390 1.021136
v 1.712958 0.186749 0.582611
v -1.558520 0.285951 1.081332
v 1.712958 0.079581 0.593166
v -1.558520 0.079581 1.101658
v 1.712958 -0.027587 0.582611
v -1.558520 -0.126789 1.081332
v 1.712958 -0.130637 0.551351
v -1.558520 -0.325228 1.021136
v 1.712958 -0.225608 0.500588
v -1.558520 -0.508110 0.923384
v 1.712958 -0.308851 0.432272
v -1.558520 -0.668408 0.791830
v 1.712958 -0.377166 0.349029
v -1.558520 -0.799961 0.631532
v 1.712958 -0.427929 0.254058
v -1.558520 -0.897714 0.448650
v 1.712958 -0.459189 0.151009
v -1.558520 -0.957910 0.250211
v 1.712958 -0.469744 0.043841
v -1.558520 -0.978235 0.043841
v 1.712958 -0.459189 -0.063327
v -1.558520 -0.957910 -0.162528
v 1.712958 -0.427929 -0.166377
v -1.558520 -0.897714 -0.360967
v 1.712958 -0.377166 -0.261348
v -1.558520 -0.799961 -0.543850
v 1.712958 -0.308850 -0.344590
v -1.558520 -0.668408 -0.704148
v 1.712958 -0.225608 -0.412906
v -1.558520 -0.508110 -0.835701
v 1.712958 -0.130637 -0.463669
v -1.558520 -0.325228 -0.933453
v 1.712958 -0.027587 -0.494929
v -1.558520 -0.126789 -0.993649
v 1.712958 0.079581 -0.505484
v -1.558520 0.079581 -1.013975
v -1.151582 2.870681 -0.299070
v -1.151582 2.870681 0.386752
v -1.151582 -2.711519 -0.299070
v -1.151582 -2.711519 0.386752
v 0.848418 1.079580 -0.079017
v 0.848418 1.079580 0.166700
v 0.848418 -0.920419 -0.079017
v 0.848418 -0.920419 0.166700
v -1.376539 -0.007387 2.292413
v -1.376539 0.166548 2.292413
v -1.376539 -0.104067 0.292413
v -1.376539 0.263228 0.292413
v -0.752490 -0.007387 2.292413
v -0.752490 0.166548 2.292413
v 0.623460 -0.104067 0.292413
v 0.623460 0.263228 0.292413
vt 0.000000 0.000000
vn 0.152900 0.096900 -0.983500
vn 0.152900 0.945700 0.286900
vn 0.152900 0.286900 -0.945700
vn 0.152900 0.945700 -0.286900
vn 0.152900 0.626900 -0.763900
vn 1.000000 -0.000000 0.000000
vn 0.152900 0.871600 0.465900
vn 0.152900 0.465900 0.871600
vn -1.000000 -0.000000 0.000000
vn 0.152900 0.983500 -0.096900
vn 0.152900 0.983500 0.096900
vn 0.152900 0.286900 0.945700
vn 0.152900 0.096900 0.983500
vn 0.152900 0.626900 0.763900
vn 0.152900 0.763900 -0.626900
vn 0.152900 0.465900 -0.871600
vn 0.152900 -0.983500 0.096900
vn 0.152900 -0.465900 0.871600
vn 0.152900 -0.763900 0.626900
vn 0.152900 -0.626900 0.763900
vn 0.152900 0.871600 -0.465900
vn 0.152900 0.763900 0.626900
vn 0.152900 -0.096900 -0.983500
vn 0.152900 -0.626900 -0.763900
vn 0.152900 -0.763900 -0.626900
vn 0.152900 -0.286900 -0.945700
vn 0.152900 -0.465900 -0.871600
vn 0.152900 -0.871600 -0.465900
vn 0.152900 -0.096900 0.983500
vn 0.152900 -0.871600 0.465900
vn 0.152900 -0.945700 -0.286900
vn 0.152900 -0.286900 0.945700
vn 0.152900 -0.983500 -0.096900
vn 0.152900 -0.945700 0.286900
vn -0.667100 0.744900 -0.000000
vn -0.667100 -0.744900 0.000000
vn -0.109400 0.000000 0.994000
vn -0.109400 -0.000000 -0.994000
vn 0.000000 0.000000 -1.000000
vn 0.823900 -0.000000 0.566800
vn 0.000000 0.000000 1.000000
vn 0.000000 -0.998800 0.048300
vn 0.000000 0.998800 0.048300
s off
f 2/1/1 1/1/1 63/1/1 64/1/1
f 20/1/2 19/1/2 17/1/2 18/1/2
f 4/1/3 3/1/3 1/1/3 2/1/3
f 14/1/4 13/1/4 11/1/4 12/1/4
f 8/1/5 7/1/5 5/1/5 6/1/5
f 7/1/6 9/1/6 11/1/6 13/1/6 15/1/6 17/1/6 19/1/6 21/1/6 23/1/6 25/1/6 27/1/6 29/1/6 31/1/6 33/1/6 35/1/6 37/1/6 39/1/6 41/1/6 43/1/6 45/1/6 47/1/6 49/1/6 51/1/6 53/1/6 55/1/6 57/1/6 59/1/6 61/1/6 63/1/6 1/1/6 3/1/6 5/1/6
f 22/1/7 21/1/7 19/1/7 20/1/7
f 28/1/8 27/1/8 25/1/8 26/1/8
f 28/1/9 26/1/9 24/1/9 22/1/9 20/1/9 18/1/9 16/1/9 14/1/9 12/1/9 10/1/9 8/1/9 6/1/9 4/1/9 2/1/9 64/1/9 62/1/9 60/1/9 58/1/9 56/1/9 54/1/9 52/1/9 50/1/9 48/1/9 46/1/9 44/1/9 42/1/9 40/1/9 38/1/9 36/1/9 34/1/9 32/1/9 30/1/9
f 16/1/10 15/1/10 13/1/10 14/1/10
f 18/1/11 17/1/11 15/1/11 16/1/11
f 30/1/12 29/1/12 27/1/12 28/1/12
f 32/1/13 31/1/13 29/1/13 30/1/13
f 26/1/14 25/1/14 23/1/14 24/1/14
f 10/1/15 9/1/15 7/1/15 8/1/15
f 6/1/16 5/1/16 3/1/16 4/1/16
f 48/1/17 47/1/17 45/1/17 46/1/17
f 38/1/18 37/1/18 35/1/18 36/1/18
f 42/1/19 41/1/19 39/1/19 40/1/19
f 40/1/20 39/1/20 37/1/20 38/1/20
f 12/1/21 11/1/21 9/1/21 10/1/21
f 24/1/22 23/1/22 21/1/22 22/1/22
f 64/1/23 63/1/23 61/1/23 62/1/23
f 58/1/24 57/1/24 55/1/24 56/1/24
f 56/1/25 55/1/25 53/1/25 54/1/25
f 62/1/26 61/1/26 59/1/26 60/1/26
f 60/1/27 59/1/27 57/1/27 58/1/27
f 54/1/28 53/1/28 51/1/28 52/1/28
f 34/1/29 33/1/29 31/1/29 32/1/29
f 44/1/30 43/1/30 41/1/30 42/1/30
f 52/1/31 51/1/31 49/1/31 50/1/31
f 36/1/32 35/1/32 33/1/32 34/1/32
f 50/1/33 49/1/33 47/1/33 48/1/33
f 46/1/34 45/1/34 43/1/34 44/1/34
f 66/1/6 68/1/6 67/1/6 65/1/6
f 68/1/35 72/1/35 71/1/35 67/1/35
f 72/1/9 70/1/9 69/1/9 71/1/9
f 70/1/36 66/1/36 65/1/36 69/1/36
f 65/1/37 67/1/37 71/1/37 69/1/37
f 70/1/38 72/1/38 68/1/38 66/1/38
f 74/1/9 76/1/9 75/1/9 73/1/9
f 76/1/39 80/1/39 79/1/39 75/1/39
f 80/1/40 78/1/40 77/1/40 79/1/40
f 78/1/41 74/1/41 73/1/41 77/1/41
f 73/1/42 75/1/42 79/1/42 77/1/42
f 78/1/43 80/1/43 76/1/43 74/1/43
